<svg xmlns="http://www.w3.org/2000/svg" viewBox="0 0 32 32" role="img" aria-label="Attune">
  <rect width="32" height="32" rx="7" fill="#1a1e26"/>
  <path fill="#7a9e8e" d="M16 6.5c-2.2 0-4.1 1.1-5.2 2.8-.9-.4-1.9-.6-2.9-.6-2.8 0-5.1 2.1-5.4 4.8-.8.3-1.5 1-1.9 1.9-.7 1.5-.4 3.3.7 4.5-.2.5-.3 1-.3 1.6 0 2.4 1.7 4.4 3.9 4.8.8 2.2 2.9 3.8 5.4 3.8.6 0 1.2-.1 1.7-.3.9 1.4 2.5 2.3 4.3 2.3s3.4-.9 4.3-2.3c.5.2 1.1.3 1.7.3 2.5 0 4.6-1.6 5.4-3.8 2.2-.4 3.9-2.4 3.9-4.8 0-.6-.1-1.1-.3-1.6 1.1-1.2 1.4-3 .7-4.5-.4-.9-1.1-1.6-1.9-1.9-.3-2.7-2.6-4.8-5.4-4.8-1 0-2 .2-2.9.6C20.1 7.6 18.2 6.5 16 6.5zm0 2.2c.8 0 1.5.2 2.1.6l.8.6.9-.4c.6-.3 1.3-.4 2-.4 1.5 0 2.8 1 3.2 2.4l.2.8.8.2c.8.2 1.4.9 1.6 1.7.2.7 0 1.4-.5 1.9l-.6.6.1.8c.1.8-.4 1.6-1.2 1.9-1 .4-1.6 1.3-1.7 2.3l-.1.9-.9.3c-1 .3-1.7 1.1-1.9 2.1l-.2.9-.9-.1c-1.1-.1-2.1.5-2.6 1.5l-.4.7-.8-.4c-.9-.5-2-.5-2.9 0l-.8.4-.4-.7c-.5-1-1.5-1.6-2.6-1.5l-.9.1-.2-.9c-.2-1-.9-1.8-1.9-2.1l-.9-.3-.1-.9c-.1-1-.7-1.9-1.7-2.3-.8-.3-1.3-1.1-1.2-1.9l.1-.8-.6-.6c-.5-.5-.7-1.2-.5-1.9.2-.8.8-1.5 1.6-1.7l.8-.2.2-.8c.4-1.4 1.7-2.4 3.2-2.4.7 0 1.4.1 2 .4l.9.4.8-.6c.6-.4 1.3-.6 2.1-.6z"/>
  <path fill="#8fb3a2" d="M16 11.2c-1.5 0-2.8.9-3.4 2.2-.5-.2-1-.3-1.6-.3-1.6 0-2.9 1.2-3.1 2.7-.5.2-.9.6-1.1 1.1-.4.9-.2 1.9.5 2.6-.1.3-.2.6-.2 1 0 1.4 1 2.6 2.3 2.8.5 1.3 1.7 2.2 3.1 2.2.3 0 .7-.1 1-.2.5.8 1.4 1.3 2.4 1.3s1.9-.5 2.4-1.3c.3.1.7.2 1 .2 1.4 0 2.6-.9 3.1-2.2 1.3-.2 2.3-1.4 2.3-2.8 0-.3-.1-.7-.2-1 .7-.7.9-1.7.5-2.6-.2-.5-.6-.9-1.1-1.1-.2-1.5-1.5-2.7-3.1-2.7-.6 0-1.1.1-1.6.3-.6-1.3-1.9-2.2-3.4-2.2z"/>
</svg>
